<svg width="24" height="24" viewBox="0 0 24 24" fill="none" xmlns="http://www.w3.org/2000/svg">
<path fill-rule="evenodd" clip-rule="evenodd" d="M11 3.05542V7.94814C10.393 7.8847 9.79969 7.76377 9.23525 7.58842C8.36356 7.31762 7.5863 6.9251 6.94318 6.44276C6.52012 6.12546 6.1634 5.77566 5.87598 5.4053C7.25277 4.12628 9.03064 3.27313 11 3.05542ZM13 3.05542V7.94814C13.6071 7.8847 14.2004 7.76377 14.7648 7.58842C15.6365 7.31762 16.4138 6.9251 17.0569 6.44276C17.48 6.12546 17.8367 5.77565 18.1241 5.4053C16.7473 4.12628 14.9694 3.27312 13 3.05542ZM19.4465 6.94424C19.0977 7.34383 18.6984 7.71162 18.2569 8.04276C17.4143 8.67473 16.4277 9.16612 15.3582 9.49838C14.6001 9.73389 13.8065 9.88756 13 9.95713V11.0001L20.9451 11.0001C20.78 9.50778 20.2501 8.12542 19.4465 6.94424ZM20.9452 13.0001L13 13.0001V14.0431C13.8065 14.1127 14.6001 14.2664 15.3582 14.5019C16.4277 14.8341 17.4143 15.3255 18.2569 15.9575C18.6985 16.2887 19.0979 16.6566 19.4468 17.0563C20.2504 15.875 20.7802 14.4926 20.9452 13.0001ZM18.1244 18.5954C17.837 18.2249 17.4801 17.8749 17.0569 17.5575C16.4138 17.0751 15.6365 16.6826 14.7648 16.4118C14.2004 16.2365 13.6071 16.1155 13 16.0521V20.9456C14.9696 20.7278 16.7476 19.8746 18.1244 18.5954ZM11 20.9456V16.0521C10.393 16.1155 9.79969 16.2365 9.23525 16.4118C8.36356 16.6826 7.5863 17.0751 6.94318 17.5575C6.51996 17.8749 6.16312 18.2249 5.87565 18.5954C7.25248 19.8746 9.03049 20.7278 11 20.9456ZM4.55327 17.0563C4.90217 16.6566 5.30154 16.2887 5.74319 15.9575C6.58581 15.3255 7.57237 14.8341 8.6419 14.5019C9.4 14.2664 10.1936 14.1127 11 14.0431V13.0001L3.05493 13.0001C3.21985 14.4926 3.7497 15.875 4.55327 17.0563ZM3.05501 11.0001L11 11.0001V9.95713C10.1936 9.88756 9.4 9.73389 8.6419 9.49838C7.57237 9.16612 6.58581 8.67473 5.74319 8.04276C5.30166 7.71162 4.90239 7.34384 4.55355 6.94424C3.74996 8.12543 3.22005 9.50778 3.05501 11.0001Z" fill="#0565AC"/>
</svg>
