<svg width="22" height="22" viewBox="0 0 22 22" fill="none" xmlns="http://www.w3.org/2000/svg">
<path d="M18.5834 2.33341H16.4167V1.25008C16.4167 0.962763 16.3026 0.687213 16.0994 0.484049C15.8963 0.280885 15.6207 0.166748 15.3334 0.166748C15.0461 0.166748 14.7705 0.280885 14.5674 0.484049C14.3642 0.687213 14.2501 0.962763 14.2501 1.25008V2.33341H7.75008V1.25008C7.75008 0.962763 7.63594 0.687213 7.43278 0.484049C7.22962 0.280885 6.95407 0.166748 6.66675 0.166748C6.37943 0.166748 6.10388 0.280885 5.90072 0.484049C5.69755 0.687213 5.58341 0.962763 5.58341 1.25008V2.33341H3.41675C2.55479 2.33341 1.72814 2.67582 1.11865 3.28532C0.509158 3.89481 0.166748 4.72146 0.166748 5.58341V18.5834C0.166748 19.4454 0.509158 20.272 1.11865 20.8815C1.72814 21.491 2.55479 21.8334 3.41675 21.8334H18.5834C19.4454 21.8334 20.272 21.491 20.8815 20.8815C21.491 20.272 21.8334 19.4454 21.8334 18.5834V5.58341C21.8334 4.72146 21.491 3.89481 20.8815 3.28532C20.272 2.67582 19.4454 2.33341 18.5834 2.33341ZM19.6667 18.5834C19.6667 18.8707 19.5526 19.1463 19.3494 19.3494C19.1463 19.5526 18.8707 19.6667 18.5834 19.6667H3.41675C3.12943 19.6667 2.85388 19.5526 2.65072 19.3494C2.44755 19.1463 2.33341 18.8707 2.33341 18.5834V11.0001H19.6667V18.5834ZM19.6667 8.83341H2.33341V5.58341C2.33341 5.2961 2.44755 5.02055 2.65072 4.81738C2.85388 4.61422 3.12943 4.50008 3.41675 4.50008H5.58341V5.58341C5.58341 5.87073 5.69755 6.14628 5.90072 6.34945C6.10388 6.55261 6.37943 6.66675 6.66675 6.66675C6.95407 6.66675 7.22962 6.55261 7.43278 6.34945C7.63594 6.14628 7.75008 5.87073 7.75008 5.58341V4.50008H14.2501V5.58341C14.2501 5.87073 14.3642 6.14628 14.5674 6.34945C14.7705 6.55261 15.0461 6.66675 15.3334 6.66675C15.6207 6.66675 15.8963 6.55261 16.0994 6.34945C16.3026 6.14628 16.4167 5.87073 16.4167 5.58341V4.50008H18.5834C18.8707 4.50008 19.1463 4.61422 19.3494 4.81738C19.5526 5.02055 19.6667 5.2961 19.6667 5.58341V8.83341Z" fill="black"/>
</svg>
