<svg width="22" height="22" viewBox="0 0 22 22" fill="none" xmlns="http://www.w3.org/2000/svg">
<path d="M18.5834 5.04159H15.3334V3.95825C15.3334 3.0963 14.991 2.26965 14.3815 1.66016C13.772 1.05066 12.9454 0.708252 12.0834 0.708252H9.91675C9.05479 0.708252 8.22814 1.05066 7.61865 1.66016C7.00916 2.26965 6.66675 3.0963 6.66675 3.95825V5.04159H3.41675C2.55479 5.04159 1.72814 5.384 1.11865 5.99349C0.509158 6.60298 0.166748 7.42963 0.166748 8.29159V18.0416C0.166748 18.9035 0.509158 19.7302 1.11865 20.3397C1.72814 20.9492 2.55479 21.2916 3.41675 21.2916H18.5834C19.4454 21.2916 20.272 20.9492 20.8815 20.3397C21.491 19.7302 21.8334 18.9035 21.8334 18.0416V8.29159C21.8334 7.42963 21.491 6.60298 20.8815 5.99349C20.272 5.384 19.4454 5.04159 18.5834 5.04159ZM8.83341 3.95825C8.83341 3.67093 8.94755 3.39538 9.15072 3.19222C9.35388 2.98906 9.62943 2.87492 9.91675 2.87492H12.0834C12.3707 2.87492 12.6463 2.98906 12.8494 3.19222C13.0526 3.39538 13.1667 3.67093 13.1667 3.95825V5.04159H8.83341V3.95825ZM19.6667 18.0416C19.6667 18.3289 19.5526 18.6045 19.3494 18.8076C19.1463 19.0108 18.8707 19.1249 18.5834 19.1249H3.41675C3.12943 19.1249 2.85388 19.0108 2.65072 18.8076C2.44755 18.6045 2.33341 18.3289 2.33341 18.0416V12.0833C5.09186 13.1776 8.03249 13.74 11.0001 13.7408C13.9676 13.7389 16.908 13.1766 19.6667 12.0833V18.0416ZM19.6667 9.71075C16.935 10.9108 13.9838 11.5305 11.0001 11.5305C8.01636 11.5305 5.06515 10.9108 2.33341 9.71075V8.29159C2.33341 8.00427 2.44755 7.72872 2.65072 7.52555C2.85388 7.32239 3.12943 7.20825 3.41675 7.20825H18.5834C18.8707 7.20825 19.1463 7.32239 19.3494 7.52555C19.5526 7.72872 19.6667 8.00427 19.6667 8.29159V9.71075Z" fill="black"/>
</svg>
