<svg width="20" height="22" viewBox="0 0 20 22" fill="none" xmlns="http://www.w3.org/2000/svg">
<path d="M7.74166 1.35403C7.90353 0.953972 8.18117 0.611362 8.53902 0.370121C8.89686 0.12888 9.3186 0 9.75016 0C10.1817 0 10.6035 0.12888 10.9613 0.370121C11.3191 0.611362 11.5968 0.953972 11.7587 1.35403C13.3606 1.79461 14.7737 2.74889 15.7808 4.07031C16.7879 5.39174 17.3334 7.00724 17.3335 8.6687V13.7571L19.3182 16.7341C19.427 16.8973 19.4895 17.0869 19.4991 17.2828C19.5086 17.4787 19.4647 17.6735 19.3722 17.8464C19.2797 18.0194 19.1419 18.1639 18.9737 18.2647C18.8054 18.3655 18.613 18.4187 18.4168 18.4187H13.5039C13.3735 19.3212 12.9222 20.1465 12.2328 20.7435C11.5434 21.3404 10.6621 21.6689 9.75016 21.6689C8.83826 21.6689 7.95688 21.3404 7.26749 20.7435C6.57809 20.1465 6.12685 19.3212 5.99641 18.4187H1.0835C0.887366 18.4187 0.694907 18.3655 0.526653 18.2647C0.358398 18.1639 0.220659 18.0194 0.128132 17.8464C0.0356048 17.6735 -0.00823956 17.4787 0.001276 17.2828C0.0107916 17.0869 0.0733102 16.8973 0.182162 16.7341L2.16683 13.7571V8.6687C2.16683 5.17603 4.5285 2.2337 7.74166 1.35403ZM8.21833 18.4187C8.33021 18.7357 8.53768 19.0103 8.81213 19.2045C9.08658 19.3986 9.4145 19.5029 9.7507 19.5029C10.0869 19.5029 10.4148 19.3986 10.6893 19.2045C10.9637 19.0103 11.1712 18.7357 11.2831 18.4187H8.21725H8.21833ZM9.75016 3.25203C8.31357 3.25203 6.93582 3.82272 5.92 4.83854C4.90418 5.85436 4.3335 7.23211 4.3335 8.6687V14.0854C4.33354 14.2994 4.27021 14.5086 4.1515 14.6866L3.10825 16.252H16.391L15.3477 14.6866C15.2294 14.5085 15.1665 14.2992 15.1668 14.0854V8.6687C15.1668 7.23211 14.5961 5.85436 13.5803 4.83854C12.5645 3.82272 11.1868 3.25203 9.75016 3.25203Z" fill="black"/>
</svg>
