<svg width="20" height="15" viewBox="0 0 20 15" fill="none" xmlns="http://www.w3.org/2000/svg">
<path d="M18.678 14.0312H1.24048C1.054 14.0312 0.875156 13.9572 0.743294 13.8253C0.611433 13.6934 0.537354 13.5146 0.537354 13.3281V1.51562C0.537354 1.32914 0.611433 1.1503 0.743294 1.01844C0.875156 0.886579 1.054 0.8125 1.24048 0.8125H18.678C18.8645 0.8125 19.0433 0.886579 19.1752 1.01844C19.307 1.1503 19.3811 1.32914 19.3811 1.51562V13.3281C19.3811 13.5146 19.307 13.6934 19.1752 13.8253C19.0433 13.9572 18.8645 14.0312 18.678 14.0312ZM1.9436 12.625H17.9749V2.21875H1.9436V12.625Z" fill="#0565AC"/>
<path d="M9.95927 10.75C9.77544 10.75 9.59893 10.678 9.46755 10.5494L0.748798 2.01814C0.615527 1.88761 0.539569 1.70948 0.537636 1.52294C0.535702 1.3364 0.60795 1.15673 0.738486 1.02346C0.869022 0.890185 1.04715 0.814228 1.23369 0.812294C1.42023 0.81036 1.5999 0.882608 1.73317 1.01314L9.95927 9.06252L18.1863 1.01314C18.2523 0.948509 18.3304 0.897504 18.4161 0.863043C18.5018 0.828581 18.5934 0.811336 18.6858 0.812294C18.7781 0.813251 18.8694 0.832392 18.9544 0.868624C19.0394 0.904855 19.1164 0.957467 19.181 1.02346C19.2456 1.08945 19.2966 1.16752 19.3311 1.25322C19.3655 1.33892 19.3828 1.43057 19.3818 1.52294C19.3809 1.6153 19.3617 1.70657 19.3255 1.79154C19.2893 1.87651 19.2367 1.95351 19.1707 2.01814L10.4519 10.5494C10.3203 10.6782 10.1434 10.7502 9.95927 10.75Z" fill="#0565AC"/>
<path d="M1.24042 14.0313C1.09855 14.0307 0.96015 13.9873 0.843416 13.9066C0.726682 13.826 0.637073 13.7119 0.586363 13.5794C0.535653 13.4469 0.526215 13.3022 0.559288 13.1642C0.592362 13.0263 0.666399 12.9015 0.771673 12.8064L7.04683 7.13641C7.1149 7.07201 7.19516 7.02188 7.28289 6.98895C7.37062 6.95601 7.46405 6.94095 7.55768 6.94464C7.65131 6.94832 7.74326 6.97069 7.82813 7.01042C7.913 7.05015 7.98906 7.10645 8.05186 7.176C8.11466 7.24555 8.16293 7.32694 8.19382 7.41541C8.22471 7.50388 8.23761 7.59763 8.23176 7.69115C8.2259 7.78467 8.20141 7.87608 8.15973 7.96C8.11804 8.04393 8.06 8.11867 7.98902 8.17985L1.71152 13.8517C1.58208 13.9677 1.41425 14.0317 1.24042 14.0313Z" fill="#0565AC"/>
<path d="M18.6775 14.0313C18.5042 14.031 18.3371 13.9664 18.2088 13.8499L11.9313 8.17805C11.7978 8.05184 11.7191 7.87843 11.7118 7.69491C11.7046 7.51139 11.7695 7.33233 11.8926 7.19602C12.0157 7.05971 12.1872 6.97696 12.3705 6.96549C12.5538 6.95401 12.7343 7.01471 12.8734 7.13461L19.1509 12.8065C19.2565 12.9019 19.3307 13.027 19.3636 13.1654C19.3965 13.3039 19.3867 13.449 19.3354 13.5817C19.2841 13.7144 19.1938 13.8284 19.0763 13.9087C18.9588 13.989 18.8198 14.0317 18.6775 14.0313Z" fill="#0565AC"/>
</svg>
