<svg width="22" height="22" viewBox="0 0 22 22" fill="none" xmlns="http://www.w3.org/2000/svg">
<path d="M11.8517 21.6667H9.80417C9.32147 21.6667 8.85855 21.4749 8.51723 21.1336C8.17592 20.7923 7.98417 20.3294 7.98417 19.8467V18.6658C7.9783 18.5963 7.95278 18.5298 7.91058 18.4742C7.86839 18.4185 7.81125 18.3761 7.74583 18.3517C7.67955 18.3092 7.60247 18.2866 7.52375 18.2866C7.44503 18.2866 7.36795 18.3092 7.30167 18.3517L6.5 19.2183C6.33184 19.3877 6.13184 19.5221 5.91152 19.6138C5.69119 19.7055 5.4549 19.7527 5.21625 19.7527C4.9776 19.7527 4.74131 19.7055 4.52098 19.6138C4.30066 19.5221 4.10066 19.3877 3.9325 19.2183L2.44833 17.7667C2.27654 17.5988 2.1401 17.3983 2.04707 17.1769C1.95403 16.9555 1.9063 16.7177 1.90667 16.4775C1.90736 15.9862 2.10204 15.5151 2.44833 15.1667L3.25 14.365C3.2887 14.3053 3.3093 14.2357 3.3093 14.1646C3.3093 14.0935 3.2887 14.0238 3.25 13.9642C3.185 13.8017 3.07667 13.6825 2.925 13.6825H1.82C1.33631 13.6796 0.873411 13.4855 0.532403 13.1424C0.191395 12.7994 -8.46756e-06 12.3354 2.80957e-10 11.8517V9.80417C2.80956e-10 9.32147 0.191749 8.85855 0.533066 8.51723C0.874382 8.17592 1.33731 7.98417 1.82 7.98417H3.00083C3.0704 7.9783 3.13687 7.95278 3.1925 7.91058C3.24812 7.86839 3.29061 7.81125 3.315 7.74583C3.35747 7.67955 3.38004 7.60247 3.38004 7.52375C3.38004 7.44503 3.35747 7.36795 3.315 7.30167L2.44833 6.5C2.27899 6.33184 2.14459 6.13184 2.05288 5.91152C1.96117 5.69119 1.91395 5.4549 1.91395 5.21625C1.91395 4.9776 1.96117 4.74131 2.05288 4.52098C2.14459 4.30066 2.27899 4.10066 2.44833 3.9325L3.9 2.44833C4.06618 2.27735 4.26489 2.14134 4.48443 2.04832C4.70397 1.95529 4.9399 1.90713 5.17833 1.90667C5.42343 1.90559 5.66634 1.95288 5.89313 2.04583C6.11992 2.13878 6.32615 2.27556 6.5 2.44833L7.30167 3.25C7.36134 3.2887 7.43095 3.3093 7.50208 3.3093C7.57321 3.3093 7.64282 3.2887 7.7025 3.25C7.865 3.185 7.98417 3.07667 7.98417 2.925V1.82C7.98703 1.33631 8.18118 0.873411 8.52422 0.532403C8.86726 0.191395 9.3313 -8.46756e-06 9.815 2.80957e-10H11.9167C12.3994 2.80957e-10 12.8623 0.191749 13.2036 0.533066C13.5449 0.874382 13.7367 1.33731 13.7367 1.82V3.00083C13.7425 3.0704 13.7681 3.13687 13.8102 3.1925C13.8524 3.24812 13.9096 3.29061 13.975 3.315C14.0413 3.35747 14.1184 3.38004 14.1971 3.38004C14.2758 3.38004 14.3529 3.35747 14.4192 3.315L15.1667 2.44833C15.3348 2.27899 15.5348 2.14459 15.7552 2.05288C15.9755 1.96117 16.2118 1.91395 16.4504 1.91395C16.6891 1.91395 16.9254 1.96117 17.1457 2.05288C17.366 2.14459 17.566 2.27899 17.7342 2.44833L19.2183 3.9C19.3896 4.0682 19.5258 4.2688 19.6188 4.49013C19.7117 4.71147 19.7598 4.94909 19.76 5.18917C19.7652 5.43323 19.7198 5.67574 19.6266 5.90136C19.5333 6.12698 19.3943 6.33082 19.2183 6.5L18.4167 7.30167C18.378 7.36134 18.3574 7.43095 18.3574 7.50208C18.3574 7.57321 18.378 7.64282 18.4167 7.7025C18.4817 7.865 18.59 7.98417 18.7417 7.98417H19.9225C20.3929 8.00646 20.8366 8.20915 21.1614 8.55011C21.4862 8.89107 21.6672 9.34408 21.6667 9.815V11.9167C21.6667 12.3994 21.4749 12.8623 21.1336 13.2036C20.7923 13.5449 20.3294 13.7367 19.8467 13.7367H18.6658C18.5963 13.7425 18.5298 13.7681 18.4742 13.8102C18.4185 13.8524 18.3761 13.9096 18.3517 13.975C18.313 14.0347 18.2924 14.1043 18.2924 14.1754C18.2924 14.2465 18.313 14.3162 18.3517 14.3758L19.1858 15.21C19.3552 15.3782 19.4896 15.5782 19.5813 15.7985C19.673 16.0188 19.7202 16.2551 19.7202 16.4937C19.7202 16.7324 19.673 16.9687 19.5813 17.189C19.4896 17.4093 19.3552 17.6093 19.1858 17.7775L17.7667 19.2183C17.6005 19.3893 17.4018 19.5253 17.1822 19.6183C16.9627 19.7114 16.7268 19.7595 16.4883 19.76C16.0046 19.7536 15.5423 19.5594 15.1992 19.2183L14.365 18.4167C14.3053 18.378 14.2357 18.3574 14.1646 18.3574C14.0935 18.3574 14.0238 18.378 13.9642 18.4167C13.8017 18.4817 13.6825 18.59 13.6825 18.7417V19.9225C13.6602 20.3929 13.4575 20.8366 13.1166 21.1614C12.7756 21.4862 12.3226 21.6672 11.8517 21.6667V21.6667ZM10.1508 19.5H11.5158V18.6658C11.5204 18.1663 11.6732 17.6793 11.9548 17.2666C12.2363 16.8539 12.634 16.534 13.0975 16.3475C13.5629 16.1441 14.0783 16.0839 14.578 16.1746C15.0777 16.2652 15.5391 16.5027 15.9033 16.8567L16.4883 17.4417L17.4417 16.4883L16.8567 15.8925C16.5049 15.5338 16.2677 15.0786 16.1751 14.5849C16.0826 14.0911 16.1388 13.5809 16.3367 13.1192C16.5249 12.6577 16.8455 12.2623 17.258 11.9828C17.6706 11.7032 18.1567 11.5521 18.655 11.5483H19.5V10.1508H18.6658C18.1663 10.1462 17.6793 9.99346 17.2666 9.7119C16.8539 9.43034 16.534 9.03264 16.3475 8.56917C16.1441 8.1038 16.0839 7.58839 16.1746 7.08867C16.2652 6.58894 16.5027 6.12755 16.8567 5.76333L17.4417 5.17833L16.4883 4.225L15.8925 4.81C15.5282 5.14276 15.0764 5.3645 14.5903 5.44911C14.1042 5.53373 13.6041 5.47769 13.1488 5.2876C12.6935 5.0975 12.3019 4.78127 12.0203 4.37614C11.7387 3.97101 11.5787 3.49385 11.5592 3.00083V2.16667H10.1508V3.00083C10.1462 3.50041 9.99346 3.98738 9.7119 4.40008C9.43034 4.81278 9.03264 5.13264 8.56917 5.31917C8.1038 5.52259 7.58839 5.58279 7.08867 5.49211C6.58894 5.40143 6.12755 5.16396 5.76333 4.81L5.17833 4.225L4.225 5.17833L4.81 5.77417C5.14276 6.13846 5.3645 6.59026 5.44911 7.07635C5.53373 7.56244 5.47769 8.06258 5.2876 8.51789C5.0975 8.9732 4.78127 9.36472 4.37614 9.64634C3.97101 9.92796 3.49385 10.088 3.00083 10.1075H2.16667V11.4725H3.00083C3.50041 11.4771 3.98738 11.6299 4.40008 11.9114C4.81278 12.193 5.13264 12.5907 5.31917 13.0542C5.52259 13.5195 5.58279 14.0349 5.49211 14.5347C5.40143 15.0344 5.16396 15.4958 4.81 15.86L4.225 16.445L5.17833 17.3983L5.77417 16.8133C6.13846 16.4806 6.59026 16.2588 7.07635 16.1742C7.56244 16.0896 8.06258 16.1456 8.51789 16.3357C8.9732 16.5258 9.36472 16.8421 9.64634 17.2472C9.92796 17.6523 10.088 18.1295 10.1075 18.6225L10.1508 19.5Z" fill="black"/>
<path d="M10.8332 14.6248C10.0833 14.6248 9.35017 14.4025 8.72664 13.9858C8.1031 13.5692 7.61711 12.977 7.33013 12.2842C7.04315 11.5913 6.96806 10.829 7.11436 10.0935C7.26066 9.35794 7.62179 8.68233 8.15206 8.15206C8.68233 7.62179 9.35794 7.26066 10.0935 7.11436C10.829 6.96806 11.5913 7.04315 12.2842 7.33013C12.977 7.61711 13.5692 8.1031 13.9858 8.72664C14.4025 9.35017 14.6248 10.0833 14.6248 10.8332C14.6248 11.8388 14.2254 12.8032 13.5143 13.5143C12.8032 14.2254 11.8388 14.6248 10.8332 14.6248V14.6248ZM10.8332 9.20817C10.5118 9.20817 10.1976 9.30348 9.93037 9.48203C9.66314 9.66059 9.45486 9.91438 9.33187 10.2113C9.20888 10.5082 9.1767 10.835 9.2394 11.1502C9.3021 11.4654 9.45686 11.755 9.68412 11.9822C9.91138 12.2095 10.2009 12.3642 10.5162 12.4269C10.8314 12.4897 11.1581 12.4575 11.455 12.3345C11.752 12.2115 12.0058 12.0032 12.1843 11.736C12.3629 11.4687 12.4582 11.1546 12.4582 10.8332C12.4582 10.4022 12.287 9.98887 11.9822 9.68412C11.6775 9.37938 11.2641 9.20817 10.8332 9.20817Z" fill="black"/>
</svg>
