<svg width="13" height="13" viewBox="0 0 13 13" fill="none" xmlns="http://www.w3.org/2000/svg">
<path d="M6.5 13C10.0559 13 13 10.0495 13 6.5C13 2.94412 10.0495 0 6.49363 0C2.94412 0 0 2.94412 0 6.5C0 10.0495 2.95049 13 6.5 13ZM4.25049 9.27843C3.96373 9.27843 3.72794 9.03627 3.72794 8.74314C3.72794 8.60294 3.78529 8.47549 3.88088 8.37353C4.91208 7.34233 4.91208 5.67042 3.88088 4.63922C3.78529 4.53726 3.72794 4.4098 3.72794 4.26961C3.72794 3.97647 3.96373 3.74706 4.25049 3.74706C4.40343 3.74706 4.52451 3.79804 4.6201 3.9C5.65687 4.93324 7.34603 4.92337 8.38627 3.89363C8.49461 3.78529 8.60931 3.73431 8.74951 3.73431C9.03627 3.73431 9.27206 3.9701 9.27206 4.25686C9.27206 4.40343 9.22745 4.51814 9.11912 4.63284C8.09019 5.66177 8.08206 7.33999 9.11275 8.36716C9.21471 8.47549 9.26569 8.59657 9.26569 8.74314C9.26569 9.03627 9.0299 9.27843 8.73677 9.27843C8.5902 9.27843 8.46275 9.21471 8.36079 9.11912C7.33413 8.09246 5.66235 8.08895 4.63922 9.11912C4.53726 9.22108 4.40343 9.27843 4.25049 9.27843Z" fill="#3C3C43" fill-opacity="0.6"/>
</svg>
