<svg width="12" height="12" viewBox="0 0 12 12" fill="none" xmlns="http://www.w3.org/2000/svg">
<path d="M4.68022 3.80575C5.01622 3.80575 5.28622 3.53575 5.28622 3.19975C5.28622 2.86375 5.01622 2.59375 4.68022 2.59375C4.34422 2.59375 4.07422 2.86375 4.07422 3.19975C4.07422 3.53575 4.34422 3.80575 4.68022 3.80575Z" fill="white"/>
<path fill-rule="evenodd" clip-rule="evenodd" d="M5.8982 5.12381C5.8982 4.47581 5.3522 4.00781 4.6802 4.00781C4.0082 4.00781 3.4622 4.47581 3.4622 5.12381V5.42981C3.4622 5.48381 3.4862 5.53781 3.5222 5.57381C3.5582 5.60981 3.6122 5.63381 3.6662 5.63381H5.6942C5.74819 5.63381 5.80219 5.60981 5.83819 5.57381C5.87419 5.53781 5.8982 5.48381 5.8982 5.42981V5.12381ZM3.4502 6.89381C3.4502 6.77447 3.49761 6.66001 3.582 6.57561C3.66639 6.49122 3.78085 6.44381 3.9002 6.44381H8.10019C8.21954 6.44381 8.334 6.49122 8.41839 6.57561C8.50278 6.66001 8.5502 6.77447 8.5502 6.89381C8.5502 7.01316 8.50278 7.12762 8.41839 7.21201C8.334 7.2964 8.21954 7.34381 8.10019 7.34381H3.9002C3.78085 7.34381 3.66639 7.2964 3.582 7.21201C3.49761 7.12762 3.4502 7.01316 3.4502 6.89381ZM3.4502 8.69381C3.4502 8.57447 3.49761 8.46001 3.582 8.37561C3.66639 8.29122 3.78085 8.24381 3.9002 8.24381H8.10019C8.21954 8.24381 8.334 8.29122 8.41839 8.37561C8.50278 8.46001 8.5502 8.57447 8.5502 8.69381C8.5502 8.81316 8.50278 8.92762 8.41839 9.01201C8.334 9.0964 8.21954 9.14381 8.10019 9.14381H3.9002C3.78085 9.14381 3.66639 9.0964 3.582 9.01201C3.49761 8.92762 3.4502 8.81316 3.4502 8.69381Z" fill="white"/>
<path fill-rule="evenodd" clip-rule="evenodd" d="M1.5 1.49687C1.5 0.835675 2.0388 0.296875 2.7 0.296875H6.714C7.0512 0.296875 7.3692 0.439675 7.593 0.675475L7.5966 0.679675L10.1838 3.50087C10.3992 3.73067 10.5 4.03127 10.5 4.31687V10.4969C10.5 11.1581 9.9612 11.6969 9.3 11.6969H2.7C2.0388 11.6969 1.5 11.1581 1.5 10.4969V1.49687ZM6.7134 1.49687H2.7V10.4969H9.3V4.31207L6.7224 1.50107L6.7206 1.50047C6.71841 1.49889 6.71598 1.49767 6.7134 1.49687Z" fill="white"/>
<path fill-rule="evenodd" clip-rule="evenodd" d="M6.71426 0.296875C6.87339 0.296875 7.026 0.360089 7.13852 0.472611C7.25104 0.585133 7.31426 0.737745 7.31426 0.896875V3.71688H9.90026C9.97905 3.71688 10.0571 3.73239 10.1299 3.76255C10.2027 3.7927 10.2688 3.8369 10.3245 3.89261C10.3802 3.94833 10.4244 4.01447 10.4546 4.08727C10.4847 4.16006 10.5003 4.23808 10.5003 4.31687C10.5003 4.39567 10.4847 4.47369 10.4546 4.54649C10.4244 4.61928 10.3802 4.68542 10.3245 4.74114C10.2688 4.79685 10.2027 4.84105 10.1299 4.8712C10.0571 4.90136 9.97905 4.91687 9.90026 4.91687H6.71426C6.55513 4.91687 6.40252 4.85366 6.28999 4.74114C6.17747 4.62862 6.11426 4.47601 6.11426 4.31687V0.896875C6.11426 0.737745 6.17747 0.585133 6.28999 0.472611C6.40252 0.360089 6.55513 0.296875 6.71426 0.296875Z" fill="white"/>
</svg>
